<svg xmlns="http://www.w3.org/2000/svg" viewBox="0 0 32 32"><path d="M27 8h-6v2h6a1 1 0 0 1 1 1v14a1 1 0 0 1-1 1H5a1 1 0 0 1-1-1V11a1 1 0 0 1 1-1h8a1 1 0 0 0 1-1V8a2 2 0 0 1 4 0v3h-7v2h10v-2h-1V8a4 4 0 0 0-8 0H5a3 3 0 0 0-3 3v14a3 3 0 0 0 3 3h22a3 3 0 0 0 3-3V11a3 3 0 0 0-3-3Z"/><path d="M15 7h2v2h-2zM5 22.5V24a1 1 0 0 0 1 1h9a1 1 0 0 0 1-1v-1.5a5.51 5.51 0 0 0-2.07-4.29 4.17 4.17 0 0 0 .07-.71 3.5 3.5 0 0 0-7 0 4.17 4.17 0 0 0 .07.71A5.51 5.51 0 0 0 5 22.5zm5.5-6.5A1.5 1.5 0 1 1 9 17.5a1.5 1.5 0 0 1 1.5-1.5zM7 22.5A3.49 3.49 0 0 1 8.06 20a3.48 3.48 0 0 0 4.88 0A3.49 3.49 0 0 1 14 22.5v.5H7zM17 15v9a1 1 0 0 0 1 1h8a1 1 0 0 0 1-1v-9a1 1 0 0 0-1-1h-8a1 1 0 0 0-1 1zm2 1h6v7h-6z"/></svg>