<svg xmlns="http://www.w3.org/2000/svg" width="655.359" height="655.359" fill-rule="evenodd" clip-rule="evenodd" image-rendering="optimizeQuality" shape-rendering="geometricPrecision" text-rendering="geometricPrecision" viewBox="0 0 6.827 6.827"><path d="M6.15141 5.55877l-5.47617 0c-0.151772,0 -0.275244,-0.123457 -0.275244,-0.275232l0 -3.24294c0,-0.15176 0.123472,-0.275228 0.275244,-0.275228l2.4507 -1.1811e-005c0.0434094,0 0.0786024,0.0352047 0.0786024,0.0786142 0,0.0434094 -0.0351929,0.0786063 -0.0786024,0.0786063l-2.4507 -1.1811e-005c-0.0650906,0 -0.118043,0.0529567 -0.118043,0.118039l0 3.24293c0,0.0650748 0.0529528,0.118035 0.118043,0.118035l5.47617 -7.87402e-006c0.0650945,0 0.118043,-0.0529409 0.118043,-0.11802l3.93701e-006 -3.24294c0,-0.0650827 -0.0529528,-0.11802 -0.118047,-0.11802l-2.5006 -1.1811e-005c-0.0434094,0 -0.0785906,-0.035185 -0.0785906,-0.0785945 0,-0.0434094 0.0351811,-0.0786024 0.0785906,-0.0786024l2.5006 -1.1811e-005c0.15178,0 0.275252,0.123484 0.275252,0.275248l3.93701e-006 3.24293c0,0.151772 -0.123476,0.275248 -0.275256,0.27524z"/><path d="M1.25177 4.88724l1.49272 0 0-.397339c0-.219094-.178236-.397331-.397335-.397331l-.698051-.00000787402c-.219091 0-.397335.178248-.397335.397346l0 .397331zm1.57133.157213l-1.64993 0c-.0434134 0-.0786024-.0351929-.0786024-.0786024l0-.475949c0-.305776.248764-.554539.554539-.554539l.698055-.00000787402c.30578 0 .554543.248772.554543.554555l0 .475937c0 .0433976-.0351969.0786063-.0786063.0786063zM1.99813 2.9542c-.197469 0-.358142.160677-.358142.358157 0 .19748.160673.358142.358142.358142.19748-.000015748.358142-.160657.358142-.358142 0-.197496-.160665-.358142-.358142-.358157zm0 .873492c-.284161 0-.515346-.231169-.515346-.515335 0-.284173.231185-.515354.515346-.515354.284161-.000011811.51535.231189.51535.515354 0 .284161-.231189.515339-.51535.515335zM5.6535 3.3026l-2.50469 0c-.0434134 0-.0786063-.035185-.0786063-.0785984 0-.0434252.0351929-.0786024.0786063-.0786024l2.50469-.00000787402c.0434094 0 .0786024.0352008.0786024.0786102 0 .0434134-.0351969.0786063-.0786024.0785984zM5.6535 3.99933l-2.50469 0c-.0434134 0-.0786063-.035189-.0786063-.0785984 0-.0434094.0351929-.0786063.0786063-.0786063l2.50469-.00000787402c.0434094 0 .0786024.0352047.0786024.0786142 0 .0434094-.0351969.0786063-.0786024.0785984zM5.65348 4.69607l-2.50468 0c-.0434134 0-.0786063-.035185-.0786063-.0785906 0-.0434173.0351929-.0786063.0786063-.0786063l2.50468-.000011811c.0434055 0 .0785984.0352047.0785984.0786181.00000393701.0434016-.0351929.0786024-.0785984.0785906zM3.12594 2.54376l-.419732 0c-.127516 0-.23124-.103717-.23124-.231217 0-.127524.103724-.231244.23124-.231244l.419732-.00000393701c.0434094 0 .0786024.0352008.0786024.0786102 0 .0433976-.0351929.0786063-.0786024.0786063l-.419732-.00000393701c-.0408189 0-.0740315.0332165-.0740315.0740354 0 .040815.0332126.0740354.0740315.0740354l.419732-.000011811c.0434094 0 .0786024.035189.0786024.0786181 0 .0434016-.0351929.0785866-.0786024.0785748zm.944606 0l-.419744 0c-.0434094 0-.0785906-.0351693-.0785906-.0785748 0-.0434331.0351811-.0786063.0785906-.0786063l.419744-.000011811c.0408189 0 .0740315-.0332047.0740315-.0740236 0-.0408307-.0332126-.0740315-.0740315-.0740315l-.419744-.00000393701c-.0434094 0-.0785906-.0351929-.0785906-.0786024 0-.0434213.0351811-.0786063.0785906-.0786063l.419744-.00000393701c.1275 0 .231228.103736.231228.231248 0 .127496-.103728.231228-.231228.231217z"/><path d="M3.20455 2.38656l0.367669 0 0 -0.961449 -0.367669 0 0 0.961449zm0.44626 0.157193l-0.524862 0c-0.0434134,0 -0.0785945,-0.0351693 -0.0785945,-0.0785748l0 -1.11869c0,-0.0434016 0.0351811,-0.0785906 0.0785945,-0.0785906l0.524862 -1.1811e-005c0.0434213,0 0.0786063,0.0352087 0.0786063,0.0786142l0 1.11867c0,0.0434134 -0.035185,0.0785984 -0.0786063,0.0785866z"/><rect width="6.827" height="6.827" fill="none"/></svg>