<svg xmlns="http://www.w3.org/2000/svg" viewBox="0 0 32 32"><path d="M27 8h-7a4 4 0 0 0-8 0H5a3 3 0 0 0-3 3v14a3 3 0 0 0 3 3h22a3 3 0 0 0 3-3V11a3 3 0 0 0-3-3ZM15 7h2v2h-2Zm13 18a1 1 0 0 1-1 1H5a1 1 0 0 1-1-1V11a1 1 0 0 1 1-1h7v1h-1v2h10v-2h-1v-1h7a1 1 0 0 1 1 1Z"/><rect width="10" height="11" x="17" y="14" rx="1" ry="1"/><path d="M13.93 18.21a4.17 4.17 0 0 0 .07-.71 3.5 3.5 0 0 0-7 0 4.17 4.17 0 0 0 .07.71A5.51 5.51 0 0 0 5 22.5V24a1 1 0 0 0 1 1h9a1 1 0 0 0 1-1v-1.5a5.51 5.51 0 0 0-2.07-4.29Z"/></svg>